<svg contentScriptType='text/ecmascript' width='50px' xmlns:xlink='http://www.w3.org/1999/xlink' zoomAndPan='magnify' contentStyleType='text/css' viewBox='0 0 50px 50px' height='50px' preserveAspectRatio='xMidYMid meet' xmlns='http://www.w3.org/2000/svg' onload='Init(evt)' version='1.0'> <g>        <pattern xmlns:xlink="http://www.w3.org/1999/xlink"
                 id="Clayey_sandstone" patternUnits="userSpaceOnUse"
                 width="65.772" xlink:show="other" xlink:type="simple"
                 patternTransform="scale(0.5, 0.5)"
                 preserveAspectRatio="xMidYMid meet"
                 viewBox="0 -65.618 65.772 65.618" height="65.618" x="-2184.646"
                 y="3215.118" xlink:actuate="onLoad">
            <rect x="0" width="65.772" y="-65.618" height="65.618"
                  style="stroke-width: 0; fill: rgb(255,240,161);"/>
            <g>
                <polygon fill="none"
                         points="0,0 0,-65.618 65.772,-65.618 65.772,0   "/>
                <path d="M26.48-63.461c0,0.813-0.659,1.472-1.471,1.472c-0.813,0-1.472-0.659-1.472-1.472s0.659-1.472,1.472-1.472    C25.821-64.933,26.48-64.273,26.48-63.461z"/>
                <path d="M10.03-50.432c0,0.813-0.659,1.472-1.472,1.472c-0.813,0-1.471-0.659-1.471-1.472s0.659-1.471,1.471-1.471    C9.372-51.902,10.03-51.244,10.03-50.432z"/>
                <polygon points="30.136,-40.378 20.055,-40.378 20.055,-43.46 30.136,-43.46   "/>
                <path d="M26.474-30.456c0,0.813-0.659,1.471-1.471,1.471c-0.813,0-1.472-0.658-1.472-1.471s0.659-1.472,1.472-1.472    C25.815-31.928,26.474-31.269,26.474-30.456z"/>
                <path d="M10.024-17.427c0,0.813-0.659,1.471-1.472,1.471c-0.813,0-1.471-0.658-1.471-1.471s0.659-1.472,1.471-1.472    C9.366-18.898,10.024-18.239,10.024-17.427z"/>
                <polygon points="30.13,-7.373 20.049,-7.373 20.049,-10.456 30.13,-10.456   "/>
                <path d="M59.477-63.447c0,0.813-0.659,1.473-1.471,1.473c-0.813,0-1.472-0.66-1.472-1.473s0.659-1.472,1.472-1.472    C58.818-64.919,59.477-64.26,59.477-63.447z"/>
                <path d="M43.027-50.418c0,0.813-0.659,1.473-1.472,1.473c-0.813,0-1.471-0.659-1.471-1.473c0-0.813,0.659-1.471,1.471-1.471    C42.369-51.889,43.027-51.23,43.027-50.418z"/>
                <polygon points="63.133,-40.364 53.052,-40.364 53.052,-43.445 63.133,-43.445   "/>
                <path d="M59.471-30.442c0,0.813-0.659,1.472-1.471,1.472c-0.813,0-1.472-0.659-1.472-1.472s0.659-1.472,1.472-1.472    C58.813-31.914,59.471-31.255,59.471-30.442z"/>
                <path d="M43.021-17.413c0,0.813-0.659,1.472-1.472,1.472c-0.813,0-1.471-0.659-1.471-1.472s0.659-1.472,1.471-1.472    C42.363-18.885,43.021-18.226,43.021-17.413z"/>
                <polygon points="63.127,-7.359 53.046,-7.359 53.046,-10.441 63.127,-10.441   "/>
            </g>
        </pattern>
 </g> <rect x='0.00000' width='50.00000' height='50.00000' y='0.00000' style='stroke-width: 0; fill: url(#Clayey_sandstone);'/> </svg>