<svg contentScriptType='text/ecmascript' width='50px' xmlns:xlink='http://www.w3.org/1999/xlink' zoomAndPan='magnify' contentStyleType='text/css' viewBox='0 0 50px 50px' height='50px' preserveAspectRatio='xMidYMid meet' xmlns='http://www.w3.org/2000/svg' onload='Init(evt)' version='1.0'> <g>        <pattern xmlns:xlink="http://www.w3.org/1999/xlink"
                 id="Coarse-grained_sandstone" patternUnits="userSpaceOnUse"
                 width="46.765" xlink:show="other" xlink:type="simple"
                 patternTransform="scale(0.5, 0.5)"
                 preserveAspectRatio="xMidYMid meet"
                 viewBox="4.365 -120.188 46.765 54.001" height="54.001"
                 x="-2184.646" y="3215.118" xlink:actuate="onLoad">
            <rect x="4.365" width="46.765" y="-120.188" height="54.001"
                  style="stroke-width: 0; fill: rgb(255,240,161);"/>
            <g>
                <polygon fill="none"
                         points="4.365,-66.187 4.365,-120.188 51.13,-120.188 51.13,-66.187   "/>
                <path fill="none" stroke-width="0.3"
                      d="M45.429-98.612c0.414-0.717,0.169-1.634-0.549-2.049    c-0.717-0.414-1.635-0.168-2.049,0.549c-0.414,0.719-0.168,1.636,0.549,2.05C44.098-97.647,45.015-97.894,45.429-98.612z"
                      stroke="#000000"/>
                <path fill="none" stroke-width="0.3"
                      d="M44.179-90.264c-0.414-0.717-1.331-0.963-2.049-0.549    c-0.717,0.415-0.963,1.332-0.549,2.05c0.414,0.717,1.332,0.963,2.049,0.549C44.348-88.629,44.593-89.546,44.179-90.264z"
                      stroke="#000000"/>
                <path fill="none" stroke-width="0.3"
                      d="M35.929-103.362c-0.414-0.717-1.331-0.963-2.049-0.549    c-0.717,0.415-0.963,1.332-0.549,2.049c0.414,0.719,1.332,0.965,2.049,0.55C36.098-101.727,36.343-102.644,35.929-103.362z"
                      stroke="#000000"/>
                <path fill="none" stroke-width="0.3"
                      d="M28.38-96.563c0.414-0.718,0.169-1.635-0.549-2.05    c-0.717-0.414-1.635-0.168-2.049,0.55c-0.414,0.718-0.168,1.635,0.549,2.05C27.049-95.599,27.966-95.845,28.38-96.563z"
                      stroke="#000000"/>
                <path fill="none" stroke-width="0.3"
                      d="M31.179-90.362c-0.414-0.717-1.331-0.963-2.049-0.549    c-0.717,0.415-0.963,1.332-0.549,2.049c0.414,0.719,1.332,0.965,2.049,0.55C31.348-88.727,31.593-89.644,31.179-90.362z"
                      stroke="#000000"/>
                <path fill="none" stroke-width="0.3"
                      d="M36.792-85.687c-0.829,0-1.5,0.671-1.5,1.5c0,0.827,0.671,1.5,1.5,1.5    c0.828,0,1.5-0.673,1.5-1.5C38.292-85.016,37.62-85.687,36.792-85.687z"
                      stroke="#000000"/>
                <path fill="none" stroke-width="0.3"
                      d="M10.888-96.513c-0.414-0.718-0.168-1.635,0.549-2.05    c0.718-0.414,1.635-0.168,2.049,0.55c0.415,0.717,0.169,1.634-0.549,2.049C12.22-95.55,11.303-95.796,10.888-96.513z"
                      stroke="#000000"/>
                <path fill="none" stroke-width="0.3"
                      d="M11.517-88.938c0.414-0.718,1.331-0.964,2.049-0.55    c0.717,0.415,0.963,1.332,0.549,2.051c-0.414,0.717-1.332,0.963-2.049,0.549C11.348-87.304,11.103-88.221,11.517-88.938z"
                      stroke="#000000"/>
                <path fill="none" stroke-width="0.3"
                      d="M16.782-103.764c0.414-0.717,1.332-0.963,2.049-0.549    c0.718,0.415,0.963,1.332,0.549,2.049c-0.414,0.718-1.331,0.964-2.049,0.549C16.614-102.129,16.368-103.046,16.782-103.764z"
                      stroke="#000000"/>
                <path fill="none" stroke-width="0.3"
                      d="M22.365-86.688c0.829,0,1.5,0.672,1.5,1.5s-0.671,1.5-1.5,1.5    c-0.828,0-1.5-0.672-1.5-1.5S21.537-86.688,22.365-86.688z"
                      stroke="#000000"/>
                <path fill="none" stroke-width="0.3"
                      d="M45.385-70.187c-0.414,0.717-1.332,0.963-2.049,0.549    c-0.717-0.414-0.963-1.332-0.549-2.049c0.414-0.719,1.332-0.963,2.049-0.55C45.553-71.822,45.799-70.905,45.385-70.187z"
                      stroke="#000000"/>
                <path fill="none" stroke-width="0.3"
                      d="M29.679-70.112c-0.414,0.719-1.331,0.965-2.049,0.55    c-0.717-0.414-0.963-1.331-0.549-2.05c0.414-0.717,1.332-0.963,2.049-0.549C29.848-71.746,30.093-70.829,29.679-70.112z"
                      stroke="#000000"/>
                <path fill="none" stroke-width="0.3"
                      d="M35.542-73.687c-0.829,0-1.5-0.673-1.5-1.5c0-0.829,0.671-1.5,1.5-1.5    c0.828,0,1.5,0.671,1.5,1.5C37.042-74.359,36.37-73.687,35.542-73.687z"
                      stroke="#000000"/>
                <path fill="none" stroke-width="0.3"
                      d="M10.13-69.813c0.414,0.718,1.332,0.964,2.049,0.549    c0.718-0.414,0.963-1.331,0.549-2.049s-1.331-0.964-2.049-0.55C9.962-71.447,9.716-70.53,10.13-69.813z"
                      stroke="#000000"/>
                <path fill="none" stroke-width="0.3"
                      d="M20.203-75.687c0.828,0,1.5-0.673,1.5-1.5c0-0.829-0.672-1.5-1.5-1.5    c-0.828,0-1.5,0.671-1.5,1.5C18.703-76.359,19.375-75.687,20.203-75.687z"
                      stroke="#000000"/>
                <path fill="none" stroke-width="0.3"
                      d="M44.635-116.438c0.414,0.718,0.168,1.635-0.549,2.049    c-0.717,0.415-1.635,0.169-2.049-0.549s-0.168-1.635,0.549-2.05C43.303-117.401,44.221-117.155,44.635-116.438z"
                      stroke="#000000"/>
                <path fill="none" stroke-width="0.3"
                      d="M36.841-110.438c-0.414,0.718-1.332,0.964-2.049,0.549    c-0.718-0.414-0.964-1.331-0.549-2.049c0.414-0.718,1.331-0.964,2.049-0.55C37.009-112.072,37.255-111.155,36.841-110.438z"
                      stroke="#000000"/>
                <path fill="none" stroke-width="0.3"
                      d="M29.728-117.063c0.415,0.718,0.169,1.635-0.549,2.05    c-0.717,0.414-1.635,0.168-2.049-0.55s-0.168-1.635,0.549-2.05C28.397-118.026,29.314-117.78,29.728-117.063z"
                      stroke="#000000"/>
                <path fill="none" stroke-width="0.3"
                      d="M10.86-116.438c-0.414,0.718-0.169,1.635,0.549,2.049    c0.717,0.415,1.635,0.169,2.049-0.549s0.168-1.635-0.549-2.05C12.191-117.401,11.274-117.155,10.86-116.438z"
                      stroke="#000000"/>
                <path fill="none" stroke-width="0.3"
                      d="M19.154-111.438c0.414,0.718,1.332,0.964,2.049,0.549    c0.717-0.414,0.963-1.331,0.549-2.049s-1.332-0.964-2.049-0.55C18.986-113.072,18.74-112.155,19.154-111.438z"
                      stroke="#000000"/>
                <path fill="none" stroke-width="0.3"
                      d="M51.88-101.188c-0.828,0-1.5-0.672-1.5-1.5s0.672-1.5,1.5-1.5    c0.829,0,1.5,0.672,1.5,1.5S52.709-101.188,51.88-101.188z"
                      stroke="#000000"/>
                <path fill="none" stroke-width="0.3"
                      d="M51.865-73.687c0.828,0,1.5-0.673,1.5-1.5c0-0.829-0.672-1.5-1.5-1.5    c-0.829,0-1.5,0.671-1.5,1.5C50.365-74.359,51.036-73.687,51.865-73.687z"
                      stroke="#000000"/>
                <path fill="none" stroke-width="0.3"
                      d="M30.179-80.862c-0.414-0.717-1.331-0.963-2.049-0.549    c-0.717,0.415-0.963,1.332-0.549,2.049c0.414,0.719,1.332,0.965,2.049,0.55C30.348-79.227,30.593-80.144,30.179-80.862z"
                      stroke="#000000"/>
                <path fill="none" stroke-width="0.3"
                      d="M21.679-93.862c-0.414-0.717-1.331-0.963-2.049-0.549    c-0.717,0.415-0.963,1.332-0.549,2.049c0.414,0.719,1.332,0.965,2.049,0.55C21.848-92.227,22.093-93.144,21.679-93.862z"
                      stroke="#000000"/>
                <path fill="none" stroke-width="0.3"
                      d="M37.914-95.737c-0.414-0.717-1.331-0.963-2.049-0.549    c-0.717,0.415-0.963,1.332-0.549,2.049c0.414,0.719,1.332,0.965,2.049,0.55C38.083-94.102,38.328-95.019,37.914-95.737z"
                      stroke="#000000"/>
                <path fill="none" stroke-width="0.3"
                      d="M28.929-107.362c-0.414-0.717-1.331-0.963-2.049-0.549    c-0.717,0.415-0.963,1.332-0.549,2.049c0.414,0.719,1.332,0.965,2.049,0.55C29.098-105.727,29.343-106.644,28.929-107.362z"
                      stroke="#000000"/>
                <path fill="none" stroke-width="0.3"
                      d="M12.429-107.862c-0.414-0.717-1.331-0.963-2.049-0.549    c-0.717,0.415-0.963,1.332-0.549,2.049c0.414,0.719,1.332,0.965,2.049,0.55C12.598-106.227,12.843-107.144,12.429-107.862z"
                      stroke="#000000"/>
                <path fill="none" stroke-width="0.3"
                      d="M44.49-107.938c-0.415-0.718-1.332-0.964-2.049-0.55    c-0.718,0.415-0.964,1.332-0.55,2.05c0.415,0.718,1.332,0.964,2.05,0.55C44.658-106.303,44.904-107.22,44.49-107.938z"
                      stroke="#000000"/>
                <path fill="none" stroke-width="0.3"
                      d="M12.679-80.862c-0.414-0.717-1.331-0.963-2.049-0.549    c-0.717,0.415-0.963,1.332-0.549,2.049c0.414,0.719,1.332,0.965,2.049,0.55C12.848-79.227,13.093-80.144,12.679-80.862z"
                      stroke="#000000"/>
                <path fill="none" stroke-width="0.3"
                      d="M21.179-68.112c-0.414-0.717-1.331-0.963-2.049-0.549    c-0.717,0.415-0.963,1.332-0.549,2.049c0.414,0.718,1.332,0.964,2.049,0.55C21.348-66.477,21.593-67.394,21.179-68.112z"
                      stroke="#000000"/>
                <path fill="none" stroke-width="0.3"
                      d="M38.929-67.612c-0.414-0.717-1.331-0.963-2.049-0.549    c-0.717,0.415-0.963,1.332-0.549,2.049c0.414,0.718,1.332,0.964,2.049,0.55C39.098-65.977,39.343-66.894,38.929-67.612z"
                      stroke="#000000"/>
                <path fill="none" stroke-width="0.3"
                      d="M43.865-80.438c0.829,0,1.5,0.671,1.5,1.5c0,0.827-0.671,1.5-1.5,1.5    c-0.828,0-1.5-0.673-1.5-1.5C42.365-79.767,43.037-80.438,43.865-80.438z"
                      stroke="#000000"/>
                <path fill="none" stroke-width="0.3"
                      d="M51.13-66.938c-0.828,0-1.5,0.672-1.5,1.5c0,0.827,0.672,1.5,1.5,1.5    c0.829,0,1.5-0.673,1.5-1.5C52.63-66.266,51.959-66.938,51.13-66.938z"
                      stroke="#000000"/>
                <path fill="none" stroke-width="0.3"
                      d="M52.163-93.987c-0.415-0.717-1.332-0.963-2.049-0.549    c-0.718,0.415-0.964,1.332-0.549,2.049c0.414,0.719,1.331,0.965,2.049,0.55C52.331-92.352,52.577-93.269,52.163-93.987z"
                      stroke="#000000"/>
                <path fill="none" stroke-width="0.3"
                      d="M51.85-113.688c-0.829,0-1.5,0.672-1.5,1.5s0.671,1.5,1.5,1.5    c0.828,0,1.5-0.672,1.5-1.5S52.678-113.688,51.85-113.688z"
                      stroke="#000000"/>
                <path fill="none" stroke-width="0.3"
                      d="M49.85-85.438c0.829,0,1.5,0.672,1.5,1.5s-0.671,1.5-1.5,1.5    c-0.828,0-1.5-0.672-1.5-1.5S49.022-85.438,49.85-85.438z"
                      stroke="#000000"/>
                <path fill="none" stroke-width="0.3"
                      d="M5.13-101.188c-0.828,0-1.5-0.672-1.5-1.5s0.672-1.5,1.5-1.5    c0.829,0,1.5,0.672,1.5,1.5S5.959-101.188,5.13-101.188z"
                      stroke="#000000"/>
                <path fill="none" stroke-width="0.3"
                      d="M5.115-73.687c0.828,0,1.5-0.673,1.5-1.5c0-0.829-0.672-1.5-1.5-1.5    c-0.829,0-1.5,0.671-1.5,1.5C3.615-74.359,4.286-73.687,5.115-73.687z"
                      stroke="#000000"/>
                <path fill="none" stroke-width="0.3"
                      d="M4.38-66.938c-0.828,0-1.5,0.672-1.5,1.5c0,0.827,0.672,1.5,1.5,1.5    c0.829,0,1.5-0.673,1.5-1.5C5.88-66.266,5.209-66.938,4.38-66.938z"
                      stroke="#000000"/>
                <path fill="none" stroke-width="0.3"
                      d="M5.413-93.987c-0.415-0.717-1.332-0.963-2.049-0.549    c-0.718,0.415-0.964,1.332-0.549,2.049c0.414,0.719,1.331,0.965,2.049,0.55C5.581-92.352,5.827-93.269,5.413-93.987z"
                      stroke="#000000"/>
                <path fill="none" stroke-width="0.3"
                      d="M5.1-113.688c-0.829,0-1.5,0.672-1.5,1.5s0.671,1.5,1.5,1.5    c0.828,0,1.5-0.672,1.5-1.5S5.928-113.688,5.1-113.688z"
                      stroke="#000000"/>
                <path fill="none" stroke-width="0.3"
                      d="M3.1-85.438c0.829,0,1.5,0.672,1.5,1.5s-0.671,1.5-1.5,1.5    c-0.828,0-1.5-0.672-1.5-1.5S2.272-85.438,3.1-85.438z"
                      stroke="#000000"/>
                <path fill="none" stroke-width="0.3"
                      d="M21.194-122.113c-0.414-0.717-1.331-0.963-2.049-0.549    c-0.717,0.415-0.963,1.332-0.549,2.049c0.414,0.718,1.332,0.964,2.049,0.55C21.363-120.478,21.608-121.395,21.194-122.113z"
                      stroke="#000000"/>
                <path fill="none" stroke-width="0.3"
                      d="M38.944-121.613c-0.414-0.717-1.331-0.963-2.049-0.549    c-0.717,0.415-0.963,1.332-0.549,2.049c0.414,0.718,1.332,0.964,2.049,0.55C39.113-119.978,39.358-120.895,38.944-121.613z"
                      stroke="#000000"/>
                <path fill="none" stroke-width="0.3"
                      d="M51.145-120.938c-0.828,0-1.5,0.672-1.5,1.5c0,0.827,0.672,1.5,1.5,1.5    c0.829,0,1.5-0.673,1.5-1.5C52.645-120.267,51.974-120.938,51.145-120.938z"
                      stroke="#000000"/>
                <path fill="none" stroke-width="0.3"
                      d="M4.395-120.938c-0.828,0-1.5,0.672-1.5,1.5c0,0.827,0.672,1.5,1.5,1.5    c0.829,0,1.5-0.673,1.5-1.5C5.895-120.267,5.224-120.938,4.395-120.938z"
                      stroke="#000000"/>
            </g>
        </pattern>
 </g> <rect x='0.00000' width='50.00000' height='50.00000' y='0.00000' style='stroke-width: 0; fill: url(#Coarse-grained_sandstone);'/> </svg>