<svg contentScriptType='text/ecmascript' width='50px' xmlns:xlink='http://www.w3.org/1999/xlink' zoomAndPan='magnify' contentStyleType='text/css' viewBox='0 0 50px 50px' height='50px' preserveAspectRatio='xMidYMid meet' xmlns='http://www.w3.org/2000/svg' onload='Init(evt)' version='1.0'> <g>        <pattern xmlns:xlink="http://www.w3.org/1999/xlink" id="Conglomerate"
                 patternUnits="userSpaceOnUse" width="65.772" xlink:show="other"
                 xlink:type="simple" patternTransform="scale(0.5, 0.5)"
                 preserveAspectRatio="xMidYMid meet"
                 viewBox="0 -65.618 65.772 65.618" height="65.618" x="-2184.646"
                 y="3215.118" xlink:actuate="onLoad">
            <rect x="0" width="65.772" y="-65.618" height="65.618"
                  style="stroke-width: 0; fill: rgb(255,240,161);"/>
            <g>
                <polygon fill="none"
                         points="0,0 0,-65.618 65.772,-65.618 65.772,0   "/>
                <polygon fill="none" stroke-width="2"
                         points="10.995,-52.59 11.357,-54.944 11.357,-57.298 13.711,-59.834     15.884,-60.377 18.058,-60.195 19.688,-58.928 21.86,-57.66 27.112,-51.692 28.923,-49.882 30.553,-46.07 31.096,-44.26     31.277,-41.906 30.915,-39.914 30.191,-38.465 24.034,-34.481 20.049,-34.119 16.971,-34.3 13.168,-34.481 11.357,-34.844     7.373,-37.56 6.287,-39.37 5.743,-44.26 6.649,-45.89 7.192,-47.882 8.279,-49.512 9.728,-50.779   "
                         stroke="#000000"/>
                <path d="M3.57-59.381c0,0.85-0.689,1.539-1.539,1.539c-0.851,0-1.54-0.689-1.54-1.539c0-0.851,0.689-1.539,1.54-1.539    C2.881-60.92,3.57-60.231,3.57-59.381z"/>
                <path d="M3.661-34.391c0,0.851-0.689,1.539-1.539,1.539c-0.851,0-1.54-0.688-1.54-1.539s0.689-1.54,1.54-1.54    C2.972-35.931,3.661-35.241,3.661-34.391z"/>
                <path d="M29.738-63.185c0,0.851-0.689,1.54-1.539,1.54c-0.851,0-1.54-0.689-1.54-1.54s0.689-1.539,1.54-1.539    C29.049-64.724,29.738-64.035,29.738-63.185z"/>
                <path d="M13.078-62.011c0,0.851-0.689,1.539-1.539,1.539c-0.851,0-1.54-0.688-1.54-1.539s0.689-1.54,1.54-1.54    C12.389-63.551,13.078-62.861,13.078-62.011z"/>
                <polygon fill="none" stroke-width="2"
                         points="43.946,-52.598 44.308,-54.952 44.308,-57.307 46.662,-59.841     48.835,-60.385 51.008,-60.203 52.638,-58.936 54.811,-57.669 60.063,-51.7 61.874,-49.89 63.503,-46.078 64.047,-44.268     64.228,-41.914 63.866,-39.922 63.142,-38.473 56.984,-34.489 53,-34.127 49.922,-34.308 46.119,-34.489 44.308,-34.852     40.324,-37.567 39.237,-39.378 38.694,-44.268 39.6,-45.897 40.143,-47.89 41.229,-49.52 42.678,-50.787   "
                         stroke="#000000"/>
                <path d="M36.521-59.39c0,0.851-0.689,1.54-1.539,1.54c-0.851,0-1.54-0.689-1.54-1.54c0-0.85,0.689-1.538,1.54-1.538    C35.832-60.928,36.521-60.239,36.521-59.39z"/>
                <path d="M36.612-34.398c0,0.851-0.689,1.539-1.539,1.539c-0.851,0-1.54-0.688-1.54-1.539s0.689-1.54,1.54-1.54    C35.923-35.938,36.612-35.249,36.612-34.398z"/>
                <path d="M62.689-63.192c0,0.851-0.689,1.54-1.539,1.54c-0.851,0-1.54-0.689-1.54-1.54s0.689-1.539,1.54-1.539    C62-64.731,62.689-64.043,62.689-63.192z"/>
                <path d="M46.028-62.019c0,0.85-0.689,1.539-1.539,1.539c-0.851,0-1.54-0.689-1.54-1.539c0-0.851,0.689-1.539,1.54-1.539    C45.339-63.558,46.028-62.869,46.028-62.019z"/>
                <polygon fill="none" stroke-width="2"
                         points="10.988,-19.82 11.35,-22.175 11.35,-24.528 13.704,-27.064     15.877,-27.607 18.05,-27.427 19.68,-26.159 21.853,-24.891 27.105,-18.923 28.916,-17.112 30.545,-13.302 31.089,-11.49     31.27,-9.136 30.908,-7.144 30.184,-5.695 24.026,-1.711 20.042,-1.349 16.964,-1.53 13.161,-1.711 11.35,-2.073 7.366,-4.79     6.279,-6.602 5.736,-11.49 6.642,-13.12 7.185,-15.112 8.271,-16.742 9.72,-18.01   "
                         stroke="#000000"/>
                <path d="M3.563-26.611c0,0.851-0.689,1.539-1.539,1.539c-0.851,0-1.54-0.688-1.54-1.539s0.689-1.54,1.54-1.54    C2.874-28.151,3.563-27.462,3.563-26.611z"/>
                <path d="M3.654-1.622c0,0.851-0.689,1.54-1.539,1.54c-0.851,0-1.54-0.689-1.54-1.54c0-0.85,0.689-1.538,1.54-1.538    C2.965-3.16,3.654-2.472,3.654-1.622z"/>
                <path d="M29.731-30.415c0,0.851-0.689,1.539-1.539,1.539c-0.851,0-1.54-0.688-1.54-1.539c0-0.85,0.689-1.539,1.54-1.539    C29.042-31.954,29.731-31.265,29.731-30.415z"/>
                <path d="M13.07-29.242c0,0.852-0.689,1.54-1.539,1.54c-0.851,0-1.54-0.688-1.54-1.54c0-0.85,0.689-1.539,1.54-1.539    C12.381-30.781,13.07-30.092,13.07-29.242z"/>
                <polygon fill="none" stroke-width="2"
                         points="43.946,-19.82 44.308,-22.175 44.308,-24.528 46.663,-27.064     48.835,-27.607 51.009,-27.427 52.639,-26.159 54.812,-24.891 60.063,-18.923 61.874,-17.112 63.504,-13.302 64.047,-11.49     64.229,-9.136 63.866,-7.144 63.142,-5.695 56.985,-1.711 53,-1.349 49.922,-1.53 46.119,-1.711 44.308,-2.073 40.324,-4.79     39.238,-6.602 38.694,-11.49 39.6,-13.12 40.143,-15.112 41.23,-16.742 42.679,-18.01   "
                         stroke="#000000"/>
                <path d="M36.521-26.611c0,0.851-0.689,1.539-1.539,1.539c-0.851,0-1.54-0.688-1.54-1.539s0.689-1.54,1.54-1.54    C35.833-28.151,36.521-27.462,36.521-26.611z"/>
                <path d="M36.612-1.622c0,0.851-0.689,1.54-1.539,1.54c-0.851,0-1.54-0.689-1.54-1.54c0-0.85,0.689-1.538,1.54-1.538    C35.923-3.16,36.612-2.472,36.612-1.622z"/>
                <path d="M62.689-30.415c0,0.851-0.689,1.539-1.539,1.539c-0.851,0-1.54-0.688-1.54-1.539c0-0.85,0.689-1.539,1.54-1.539    C62-31.954,62.689-31.265,62.689-30.415z"/>
                <path d="M46.029-29.242c0,0.852-0.689,1.54-1.539,1.54c-0.851,0-1.54-0.688-1.54-1.54c0-0.85,0.689-1.539,1.54-1.539    C45.34-30.781,46.029-30.092,46.029-29.242z"/>
            </g>
        </pattern>
 </g> <rect x='0.00000' width='50.00000' height='50.00000' y='0.00000' style='stroke-width: 0; fill: url(#Conglomerate);'/> </svg>