<svg contentScriptType='text/ecmascript' width='50px' xmlns:xlink='http://www.w3.org/1999/xlink' zoomAndPan='magnify' contentStyleType='text/css' viewBox='0 0 50px 50px' height='50px' preserveAspectRatio='xMidYMid meet' xmlns='http://www.w3.org/2000/svg' onload='Init(evt)' version='1.0'> <g>        <pattern xmlns:xlink="http://www.w3.org/1999/xlink"
                 id="Fine-grained_sandstone" patternUnits="userSpaceOnUse"
                 width="65.772" xlink:show="other" xlink:type="simple"
                 patternTransform="scale(0.5, 0.5)"
                 preserveAspectRatio="xMidYMid meet"
                 viewBox="0 -65.618 65.772 65.618" height="65.618" x="-2184.646"
                 y="3215.118" xlink:actuate="onLoad">
            <rect x="0" width="65.772" y="-65.618" height="65.618"
                  style="stroke-width: 0; fill: rgb(255,240,161);"/>
            <g>
                <polygon fill="none"
                         points="0,0 0,-65.618 65.772,-65.618 65.772,0   "/>
                <path d="M26.48-63.461c0,0.813-0.659,1.472-1.471,1.472c-0.813,0-1.472-0.659-1.472-1.472s0.659-1.472,1.472-1.472    C25.821-64.933,26.48-64.273,26.48-63.461z"/>
                <path d="M10.03-47.432c0,0.813-0.659,1.472-1.472,1.472c-0.813,0-1.471-0.659-1.471-1.472s0.659-1.471,1.471-1.471    C9.372-48.902,10.03-48.244,10.03-47.432z"/>
                <path d="M32.477-63.447c0,0.813-0.659,1.473-1.471,1.473c-0.813,0-1.472-0.66-1.472-1.473s0.659-1.472,1.472-1.472    C31.818-64.919,32.477-64.26,32.477-63.447z"/>
                <path d="M16.027-47.418c0,0.813-0.659,1.473-1.472,1.473c-0.813,0-1.471-0.659-1.471-1.473c0-0.813,0.659-1.471,1.471-1.471    C15.369-48.889,16.027-48.23,16.027-47.418z"/>
                <path d="M59.606-63.414c0,0.813-0.659,1.472-1.471,1.472c-0.813,0-1.472-0.659-1.472-1.472s0.659-1.472,1.472-1.472    C58.948-64.886,59.606-64.227,59.606-63.414z"/>
                <path d="M43.157-47.385c0,0.813-0.659,1.473-1.472,1.473c-0.813,0-1.471-0.659-1.471-1.473c0-0.813,0.659-1.471,1.471-1.471    C42.498-48.855,43.157-48.197,43.157-47.385z"/>
                <path d="M65.604-63.399c0,0.813-0.659,1.472-1.471,1.472c-0.813,0-1.472-0.659-1.472-1.472s0.659-1.472,1.472-1.472    C64.945-64.871,65.604-64.212,65.604-63.399z"/>
                <path d="M49.154-47.37c0,0.813-0.659,1.472-1.472,1.472c-0.813,0-1.471-0.658-1.471-1.472c0-0.813,0.659-1.471,1.471-1.471    C48.495-48.841,49.154-48.183,49.154-47.37z"/>
                <path d="M26.5-30.493c0,0.813-0.659,1.472-1.471,1.472c-0.813,0-1.472-0.659-1.472-1.472s0.659-1.472,1.472-1.472    C25.842-31.965,26.5-31.306,26.5-30.493z"/>
                <path d="M10.051-14.464c0,0.813-0.659,1.472-1.472,1.472c-0.813,0-1.471-0.658-1.471-1.472c0-0.813,0.659-1.471,1.471-1.471    C9.392-15.935,10.051-15.276,10.051-14.464z"/>
                <path d="M32.498-30.479c0,0.813-0.659,1.472-1.471,1.472c-0.813,0-1.472-0.659-1.472-1.472s0.659-1.472,1.472-1.472    C31.839-31.95,32.498-31.291,32.498-30.479z"/>
                <path d="M16.048-14.449c0,0.813-0.659,1.472-1.472,1.472c-0.813,0-1.471-0.658-1.471-1.472c0-0.813,0.659-1.471,1.471-1.471    C15.389-15.92,16.048-15.262,16.048-14.449z"/>
                <path d="M59.627-30.445c0,0.813-0.659,1.472-1.471,1.472c-0.813,0-1.472-0.659-1.472-1.472s0.659-1.472,1.472-1.472    C58.968-31.917,59.627-31.258,59.627-30.445z"/>
                <path d="M43.177-14.416c0,0.813-0.659,1.472-1.472,1.472c-0.813,0-1.471-0.658-1.471-1.472c0-0.813,0.659-1.471,1.471-1.471    C42.519-15.887,43.177-15.229,43.177-14.416z"/>
                <path d="M65.624-30.432c0,0.813-0.659,1.472-1.471,1.472c-0.813,0-1.472-0.659-1.472-1.472s0.659-1.471,1.472-1.471    C64.965-31.902,65.624-31.244,65.624-30.432z"/>
                <path d="M49.174-14.402c0,0.813-0.659,1.472-1.472,1.472c-0.813,0-1.471-0.658-1.471-1.472c0-0.813,0.659-1.471,1.471-1.471    C48.516-15.873,49.174-15.215,49.174-14.402z"/>
                <path d="M29.574-43.337c0,0.813-0.659,1.472-1.472,1.472c-0.813,0-1.471-0.658-1.471-1.472c0-0.813,0.659-1.471,1.471-1.471    C28.916-44.808,29.574-44.149,29.574-43.337z"/>
                <path d="M62.701-43.29c0,0.813-0.659,1.472-1.472,1.472c-0.813,0-1.471-0.658-1.471-1.472c0-0.813,0.659-1.471,1.471-1.471    C62.042-44.761,62.701-44.103,62.701-43.29z"/>
                <path d="M29.595-10.369c0,0.813-0.659,1.472-1.472,1.472c-0.813,0-1.471-0.658-1.471-1.472c0-0.813,0.659-1.471,1.471-1.471    C28.936-11.84,29.595-11.182,29.595-10.369z"/>
                <path d="M62.721-10.321c0,0.813-0.659,1.472-1.472,1.472c-0.813,0-1.471-0.658-1.471-1.472c0-0.813,0.659-1.472,1.471-1.472    C62.063-11.793,62.721-11.134,62.721-10.321z"/>
            </g>
        </pattern>
 </g> <rect x='0.00000' width='50.00000' height='50.00000' y='0.00000' style='stroke-width: 0; fill: url(#Fine-grained_sandstone);'/> </svg>