<svg contentScriptType='text/ecmascript' width='50px' xmlns:xlink='http://www.w3.org/1999/xlink' zoomAndPan='magnify' contentStyleType='text/css' viewBox='0 0 50px 50px' height='50px' preserveAspectRatio='xMidYMid meet' xmlns='http://www.w3.org/2000/svg' onload='Init(evt)' version='1.0'> <g>        <pattern xmlns:xlink="http://www.w3.org/1999/xlink" id="Gneiss"
                 patternUnits="userSpaceOnUse" width="65.772" xlink:show="other"
                 xlink:type="simple" patternTransform="scale(0.5, 0.5)"
                 preserveAspectRatio="xMidYMid meet"
                 viewBox="0.987 -66.297 65.772 65.618" height="65.618"
                 x="-2184.646" y="3215.118" xlink:actuate="onLoad">
            <rect x="0.987" width="65.772" y="-66.297" height="65.618"
                  style="stroke-width: 0; fill: rgb(204,204,204);"/>
            <g>
                <polygon fill="none"
                         points="0.987,-0.68 0.987,-66.297 66.759,-66.297 66.759,-0.68   "/>
                <polyline fill="none" stroke-width="1.6"
                          points="0.8,-49.796     3.884,-50.881 14.435,-61.432 17.549,-62.545 20.292,-61.802 30.933,-51.159 34.296,-49.796   "
                          stroke-linejoin="round" stroke-linecap="round"
                          stroke="#000000"/>
                <polyline fill="none" stroke-width="1.6"
                          points="0.8,-33.465     3.871,-34.535 14.422,-45.087 17.547,-46.212 20.305,-45.455 31.037,-34.724 34.296,-33.465   "
                          stroke-linejoin="round" stroke-linecap="round"
                          stroke="#000000"/>
                <line stroke-linecap="round" fill="none" x1="30.919"
                      y1="-67.505" x2="34.296" y2="-66.128"
                      stroke-linejoin="round" stroke="#000000"
                      stroke-width="1.6"/>
                <line stroke-linecap="round" fill="none" x1="0.8" y1="-66.128"
                      x2="3.899" y2="-67.228" stroke-linejoin="round"
                      stroke="#000000" stroke-width="1.6"/>
                <polyline fill="none" stroke-width="1.6"
                          points="0.8,-0.8     3.935,-1.936 14.484,-12.485 17.549,-13.549 20.421,-12.676 30.975,-2.122 34.296,-0.8   "
                          stroke-linejoin="round" stroke-linecap="round"
                          stroke="#000000"/>
                <polyline fill="none" stroke-width="1.6"
                          points="0.8,-17.132     3.855,-18.187 14.412,-28.743 17.549,-29.881 20.408,-29.021 30.962,-18.466 34.296,-17.132   "
                          stroke-linejoin="round" stroke-linecap="round"
                          stroke="#000000"/>
                <polyline fill="none" stroke-width="1.6"
                          points="    33.875,-49.822 36.959,-50.906 47.511,-61.458 50.624,-62.57 53.367,-61.827 64.008,-51.186 67.371,-49.822   "
                          stroke-linejoin="round" stroke-linecap="round"
                          stroke="#000000"/>
                <polyline fill="none" stroke-width="1.6"
                          points="    33.875,-33.49 36.946,-34.561 47.498,-45.113 50.623,-46.238 53.38,-45.481 64.112,-34.75 67.371,-33.49   "
                          stroke-linejoin="round" stroke-linecap="round"
                          stroke="#000000"/>
                <line stroke-linecap="round" fill="none" x1="63.995"
                      y1="-67.531" x2="67.371" y2="-66.154"
                      stroke-linejoin="round" stroke="#000000"
                      stroke-width="1.6"/>
                <line stroke-linecap="round" fill="none" x1="33.875"
                      y1="-66.154" x2="36.974" y2="-67.253"
                      stroke-linejoin="round" stroke="#000000"
                      stroke-width="1.6"/>
                <polyline fill="none" stroke-width="1.6"
                          points="    33.875,-0.826 37.011,-1.961 47.559,-12.511 50.624,-13.574 53.496,-12.702 64.05,-2.147 67.371,-0.826   "
                          stroke-linejoin="round" stroke-linecap="round"
                          stroke="#000000"/>
                <polyline fill="none" stroke-width="1.6"
                          points="    33.875,-17.157 36.93,-18.213 47.487,-28.769 50.624,-29.906 53.483,-29.048 64.038,-18.492 67.371,-17.157   "
                          stroke-linejoin="round" stroke-linecap="round"
                          stroke="#000000"/>
            </g>
        </pattern>
 </g> <rect x='0.00000' width='50.00000' height='50.00000' y='0.00000' style='stroke-width: 0; fill: url(#Gneiss);'/> </svg>