<svg contentScriptType='text/ecmascript' width='50px' xmlns:xlink='http://www.w3.org/1999/xlink' zoomAndPan='magnify' contentStyleType='text/css' viewBox='0 0 50px 50px' height='50px' preserveAspectRatio='xMidYMid meet' xmlns='http://www.w3.org/2000/svg' onload='Init(evt)' version='1.0'> <g>        <pattern xmlns:xlink="http://www.w3.org/1999/xlink"
                 id="Oolitic_limestone" patternUnits="userSpaceOnUse"
                 width="65.771" xlink:show="other" xlink:type="simple"
                 patternTransform="scale(0.5, 0.5)"
                 preserveAspectRatio="xMidYMid meet"
                 viewBox="6.091 -66.618 65.771 65.618" height="65.618"
                 x="-2184.646" y="3215.118" xlink:actuate="onLoad">
            <rect x="6.091" width="65.771" y="-66.618" height="65.618"
                  style="stroke-width: 0; fill: rgb(204,220,235);"/>
            <g>
                <g>
                    <polygon fill="none"
                             points="6.091,-1 6.091,-66.618 71.862,-66.618 71.862,-1    "/>
                    <polyline fill="none" stroke-width="2"
                              points="6.091,-66.618 38.718,-66.618 71.862,-66.618    "
                              stroke="#000000"/>
                    <line fill="none" x1="6.091" x2="71.862" y1="-1" y2="-1"
                          stroke="#000000" stroke-width="2"/>
                    <line fill="none" x1="6.03" x2="71.774" y1="-33.809"
                          y2="-33.809" stroke="#000000" stroke-width="2"/>
                    <line fill="none" x1="6.03" x2="71.774" y1="-50.214"
                          y2="-50.214" stroke="#000000" stroke-width="2"/>
                    <line fill="none" x1="6.03" x2="71.774" y1="-17.404"
                          y2="-17.404" stroke="#000000" stroke-width="2"/>
                    <line fill="none" x1="38.718" x2="38.718" y1="-50.234"
                          y2="-66.618" stroke="#000000" stroke-width="2"/>
                    <line fill="none" x1="38.718" x2="38.718" y1="-33.891"
                          y2="-17.425" stroke="#000000" stroke-width="2"/>
                    <line fill="none" x1="6.03" x2="6.03" y1="-50.603"
                          y2="-66.332" stroke="#000000" stroke-width="2"/>
                    <line fill="none" x1="71.774" x2="71.774" y1="-50.419"
                          y2="-66.148" stroke="#000000" stroke-width="2"/>
                    <path fill="none" stroke-width="2" d="M6.153-50.174"
                          stroke="#000000"/>
                    <path fill="none" stroke-width="2" d="M6.153-34.444"
                          stroke="#000000"/>
                    <path fill="none" stroke-width="2" d="M38.964-49.437"
                          stroke="#000000"/>
                    <path fill="none" stroke-width="2" d="M38.964-33.707"
                          stroke="#000000"/>
                    <path fill="none" stroke-width="2" d="M71.774-49.559"
                          stroke="#000000"/>
                    <path fill="none" stroke-width="2" d="M71.774-33.829"
                          stroke="#000000"/>
                    <line fill="none" x1="22.558" x2="22.558" y1="-34.075"
                          y2="-49.805" stroke="#000000" stroke-width="2"/>
                    <line fill="none" x1="55.368" x2="55.368" y1="-34.198"
                          y2="-49.928" stroke="#000000" stroke-width="2"/>
                    <path fill="none" stroke-width="2" d="M6.153-16.847"
                          stroke="#000000"/>
                    <path fill="none" stroke-width="2" d="M6.153-1.117"
                          stroke="#000000"/>
                    <path fill="none" stroke-width="2" d="M38.964-16.847"
                          stroke="#000000"/>
                    <path fill="none" stroke-width="2" d="M38.964-1.117"
                          stroke="#000000"/>
                    <path fill="none" stroke-width="2" d="M71.774-16.847"
                          stroke="#000000"/>
                    <path fill="none" stroke-width="2" d="M71.774-1.117"
                          stroke="#000000"/>
                    <line fill="none" x1="22.558" x2="22.558" y1="-1.117"
                          y2="-16.847" stroke="#000000" stroke-width="2"/>
                    <line fill="none" x1="55.368" x2="55.368" y1="-1.117"
                          y2="-16.847" stroke="#000000" stroke-width="2"/>
                    <line fill="none" x1="6.091" x2="6.091" y1="-17.578"
                          y2="-33.308" stroke="#000000" stroke-width="2"/>
                    <line fill="none" x1="71.835" x2="71.835" y1="-17.395"
                          y2="-33.124" stroke="#000000" stroke-width="2"/>
                </g>
                <g>
                    <path fill="none"
                          d="M27.8-58.487c0,3.13-2.537,5.667-5.666,5.667     s-5.666-2.537-5.666-5.667s2.537-5.666,5.666-5.666S27.8-61.617,27.8-58.487z"
                          stroke-linecap="round" stroke="#000000"/>
                    <path d="M23.559-58.298c0,0.734-0.637,1.33-1.424,1.33s-1.426-0.596-1.426-1.33c0-0.735,0.639-1.33,1.426-1.33     S23.559-59.033,23.559-58.298z"/>
                </g>
                <g>
                    <path fill="none"
                          d="M27.8-25.582c0,3.13-2.537,5.667-5.666,5.667     s-5.666-2.537-5.666-5.667c0-3.129,2.537-5.666,5.666-5.666S27.8-28.711,27.8-25.582z"
                          stroke-linecap="round" stroke="#000000"/>
                    <path d="M23.559-25.393c0,0.735-0.637,1.331-1.424,1.331s-1.426-0.596-1.426-1.331s0.639-1.33,1.426-1.33     S23.559-26.128,23.559-25.393z"/>
                </g>
                <g>
                    <path fill="none"
                          d="M44.614-8.942c0,3.13-2.537,5.667-5.666,5.667     s-5.666-2.537-5.666-5.667s2.537-5.667,5.666-5.667S44.614-12.072,44.614-8.942z"
                          stroke-linecap="round" stroke="#000000"/>
                    <path d="M40.373-8.753c0,0.734-0.637,1.33-1.424,1.33s-1.426-0.596-1.426-1.33c0-0.735,0.639-1.331,1.426-1.331     S40.373-9.488,40.373-8.753z"/>
                </g>
                <g>
                    <path fill="none"
                          d="M44.614-42.331c0,3.129-2.537,5.666-5.666,5.666     s-5.666-2.537-5.666-5.666c0-3.13,2.537-5.667,5.666-5.667S44.614-45.461,44.614-42.331z"
                          stroke-linecap="round" stroke="#000000"/>
                    <path d="M40.373-42.143c0,0.735-0.637,1.331-1.424,1.331s-1.426-0.596-1.426-1.331c0-0.734,0.639-1.33,1.426-1.33     S40.373-42.877,40.373-42.143z"/>
                </g>
                <g>
                    <path fill="none"
                          d="M60.931-25.582c0,3.13-2.537,5.667-5.666,5.667     s-5.666-2.537-5.666-5.667c0-3.129,2.537-5.666,5.666-5.666S60.931-28.711,60.931-25.582z"
                          stroke-linecap="round" stroke="#000000"/>
                    <path d="M56.69-25.393c0,0.735-0.637,1.331-1.424,1.331s-1.426-0.596-1.426-1.331s0.639-1.33,1.426-1.33     S56.69-26.128,56.69-25.393z"/>
                </g>
                <g>
                    <path fill="none"
                          d="M60.931-58.487c0,3.13-2.537,5.667-5.666,5.667     s-5.666-2.537-5.666-5.667s2.537-5.666,5.666-5.666S60.931-61.617,60.931-58.487z"
                          stroke-linecap="round" stroke="#000000"/>
                    <path d="M56.69-58.298c0,0.734-0.637,1.33-1.424,1.33s-1.426-0.596-1.426-1.33c0-0.735,0.639-1.33,1.426-1.33     S56.69-59.033,56.69-58.298z"/>
                </g>
                <g>
                    <path fill="none"
                          d="M11.832-42.331c0,3.129-2.537,5.666-5.666,5.666     S0.5-39.202,0.5-42.331c0-3.13,2.537-5.667,5.666-5.667S11.832-45.461,11.832-42.331z"
                          stroke-linecap="round" stroke="#000000"/>
                    <path d="M7.592-42.143c0,0.735-0.637,1.331-1.424,1.331s-1.426-0.596-1.426-1.331c0-0.734,0.639-1.33,1.426-1.33     S7.592-42.877,7.592-42.143z"/>
                </g>
                <g>
                    <path fill="none"
                          d="M11.832-8.942c0,3.13-2.537,5.667-5.666,5.667S0.5-5.813,0.5-8.942     s2.537-5.667,5.666-5.667S11.832-12.072,11.832-8.942z"
                          stroke-linecap="round" stroke="#000000"/>
                    <path d="M7.592-8.753c0,0.734-0.637,1.33-1.424,1.33s-1.426-0.596-1.426-1.33c0-0.735,0.639-1.331,1.426-1.331     S7.592-9.488,7.592-8.753z"/>
                </g>
                <g>
                    <path fill="none"
                          d="M77.683-8.942c0,3.13-2.537,5.667-5.666,5.667     s-5.666-2.537-5.666-5.667s2.537-5.667,5.666-5.667S77.683-12.072,77.683-8.942z"
                          stroke-linecap="round" stroke="#000000"/>
                    <path d="M73.44-8.753c0,0.734-0.637,1.33-1.424,1.33s-1.426-0.596-1.426-1.33c0-0.735,0.639-1.331,1.426-1.331     S73.44-9.488,73.44-8.753z"/>
                </g>
                <g>
                    <path fill="none"
                          d="M77.683-42.331c0,3.129-2.537,5.666-5.666,5.666     s-5.666-2.537-5.666-5.666c0-3.13,2.537-5.667,5.666-5.667S77.683-45.461,77.683-42.331z"
                          stroke-linecap="round" stroke="#000000"/>
                    <path d="M73.44-42.143c0,0.735-0.637,1.331-1.424,1.331s-1.426-0.596-1.426-1.331c0-0.734,0.639-1.33,1.426-1.33     S73.44-42.877,73.44-42.143z"/>
                </g>
            </g>
        </pattern>
 </g> <rect x='0.00000' width='50.00000' height='50.00000' y='0.00000' style='stroke-width: 0; fill: url(#Oolitic_limestone);'/> </svg>