<svg contentScriptType='text/ecmascript' width='50px' xmlns:xlink='http://www.w3.org/1999/xlink' zoomAndPan='magnify' contentStyleType='text/css' viewBox='0 0 50px 50px' height='50px' preserveAspectRatio='xMidYMid meet' xmlns='http://www.w3.org/2000/svg' onload='Init(evt)' version='1.0'> <g>        <pattern xmlns:xlink="http://www.w3.org/1999/xlink" id="Sandy_limestone"
                 patternUnits="userSpaceOnUse" width="65.771" xlink:show="other"
                 xlink:type="simple" patternTransform="scale(0.5, 0.5)"
                 preserveAspectRatio="xMidYMid meet"
                 viewBox="1.061 -66.618 65.771 65.618" height="65.618"
                 x="-2184.646" y="3215.118" xlink:actuate="onLoad">
            <rect x="1.061" width="65.771" y="-66.618" height="65.618"
                  style="stroke-width: 0; fill: rgb(204,220,235);"/>
            <g>
                <g>
                    <polygon fill="none"
                             points="1.061,-1 1.061,-66.618 66.832,-66.618 66.832,-1    "/>
                    <polyline fill="none" stroke-width="2"
                              points="1.061,-66.618 33.688,-66.618 66.832,-66.618    "
                              stroke="#000000"/>
                    <line fill="none" x1="1.061" x2="66.832" y1="-1" y2="-1"
                          stroke="#000000" stroke-width="2"/>
                    <line fill="none" x1="1" x2="66.744" y1="-33.809"
                          y2="-33.809" stroke="#000000" stroke-width="2"/>
                    <line fill="none" x1="1" x2="66.744" y1="-50.214"
                          y2="-50.214" stroke="#000000" stroke-width="2"/>
                    <line fill="none" x1="1" x2="66.744" y1="-17.404"
                          y2="-17.404" stroke="#000000" stroke-width="2"/>
                    <line fill="none" x1="33.688" x2="33.688" y1="-50.234"
                          y2="-66.618" stroke="#000000" stroke-width="2"/>
                    <line fill="none" x1="33.688" x2="33.688" y1="-33.891"
                          y2="-17.425" stroke="#000000" stroke-width="2"/>
                    <line fill="none" x1="1" x2="1" y1="-50.603" y2="-66.332"
                          stroke="#000000" stroke-width="2"/>
                    <line fill="none" x1="66.744" x2="66.744" y1="-50.419"
                          y2="-66.148" stroke="#000000" stroke-width="2"/>
                    <path fill="none" stroke-width="2" d="M1.123-50.174"
                          stroke="#000000"/>
                    <path fill="none" stroke-width="2" d="M1.123-34.444"
                          stroke="#000000"/>
                    <path fill="none" stroke-width="2" d="M33.934-49.437"
                          stroke="#000000"/>
                    <path fill="none" stroke-width="2" d="M33.934-33.707"
                          stroke="#000000"/>
                    <path fill="none" stroke-width="2" d="M66.744-49.559"
                          stroke="#000000"/>
                    <path fill="none" stroke-width="2" d="M66.744-33.829"
                          stroke="#000000"/>
                    <line fill="none" x1="17.527" x2="17.527" y1="-34.075"
                          y2="-49.805" stroke="#000000" stroke-width="2"/>
                    <line fill="none" x1="50.338" x2="50.338" y1="-34.198"
                          y2="-49.928" stroke="#000000" stroke-width="2"/>
                    <path fill="none" stroke-width="2" d="M1.123-16.847"
                          stroke="#000000"/>
                    <path fill="none" stroke-width="2" d="M1.123-1.117"
                          stroke="#000000"/>
                    <path fill="none" stroke-width="2" d="M33.934-16.847"
                          stroke="#000000"/>
                    <path fill="none" stroke-width="2" d="M33.934-1.117"
                          stroke="#000000"/>
                    <path fill="none" stroke-width="2" d="M66.744-16.847"
                          stroke="#000000"/>
                    <path fill="none" stroke-width="2" d="M66.744-1.117"
                          stroke="#000000"/>
                    <line fill="none" x1="17.527" x2="17.527" y1="-1.117"
                          y2="-16.847" stroke="#000000" stroke-width="2"/>
                    <line fill="none" x1="50.338" x2="50.338" y1="-1.117"
                          y2="-16.847" stroke="#000000" stroke-width="2"/>
                    <line fill="none" x1="1.061" x2="1.061" y1="-17.578"
                          y2="-33.308" stroke="#000000" stroke-width="2"/>
                    <line fill="none" x1="66.805" x2="66.805" y1="-17.395"
                          y2="-33.124" stroke="#000000" stroke-width="2"/>
                </g>
                <g>
                    <polygon fill="none"
                             points="12.486,-6.6 12.486,-60.601 59.25,-60.601 59.25,-6.6    "/>
                    <path fill="none" stroke-width="0.3"
                          d="M53.549-39.024c0.414-0.717,0.17-1.634-0.549-2.049     c-0.717-0.414-1.635-0.168-2.049,0.549c-0.414,0.718-0.168,1.635,0.549,2.049C52.219-38.061,53.135-38.307,53.549-39.024z"
                          stroke="#000000"/>
                    <path fill="none" stroke-width="0.3"
                          d="M52.299-30.676c-0.414-0.718-1.33-0.964-2.049-0.55     c-0.717,0.415-0.963,1.332-0.549,2.051c0.414,0.717,1.332,0.963,2.049,0.549C52.469-29.041,52.713-29.958,52.299-30.676z"
                          stroke="#000000"/>
                    <path fill="none" stroke-width="0.3"
                          d="M44.049-43.774c-0.414-0.717-1.33-0.963-2.049-0.549     c-0.717,0.415-0.963,1.332-0.549,2.049c0.414,0.718,1.332,0.964,2.049,0.549C44.219-42.14,44.463-43.057,44.049-43.774z"
                          stroke="#000000"/>
                    <path fill="none" stroke-width="0.3"
                          d="M36.5-36.976c0.414-0.717,0.17-1.634-0.549-2.049     c-0.717-0.414-1.635-0.168-2.049,0.549c-0.414,0.719-0.168,1.636,0.549,2.051C35.17-36.012,36.086-36.257,36.5-36.976z"
                          stroke="#000000"/>
                    <path fill="none" stroke-width="0.3"
                          d="M39.299-30.774c-0.414-0.717-1.33-0.963-2.049-0.549     c-0.717,0.415-0.963,1.332-0.549,2.049c0.414,0.718,1.332,0.964,2.049,0.549C39.469-29.14,39.713-30.057,39.299-30.774z"
                          stroke="#000000"/>
                    <path fill="none" stroke-width="0.3"
                          d="M44.912-26.1c-0.828,0-1.5,0.671-1.5,1.5c0,0.828,0.672,1.5,1.5,1.5     s1.5-0.672,1.5-1.5C46.412-25.429,45.74-26.1,44.912-26.1z"
                          stroke="#000000"/>
                    <path fill="none" stroke-width="0.3"
                          d="M19.008-36.925c-0.414-0.719-0.168-1.636,0.549-2.051     c0.719-0.414,1.637-0.168,2.051,0.551c0.414,0.717,0.168,1.634-0.551,2.049C20.34-35.962,19.424-36.208,19.008-36.925z"
                          stroke="#000000"/>
                    <path fill="none" stroke-width="0.3"
                          d="M19.637-29.352c0.414-0.717,1.332-0.963,2.051-0.549     c0.717,0.415,0.963,1.332,0.549,2.05s-1.332,0.963-2.049,0.55C19.469-27.716,19.223-28.633,19.637-29.352z"
                          stroke="#000000"/>
                    <path fill="none" stroke-width="0.3"
                          d="M24.902-44.176c0.414-0.718,1.332-0.964,2.049-0.55     c0.719,0.415,0.963,1.332,0.549,2.05s-1.33,0.964-2.049,0.549C24.734-42.541,24.488-43.458,24.902-44.176z"
                          stroke="#000000"/>
                    <path fill="none" stroke-width="0.3"
                          d="M30.486-27.101c0.828,0,1.5,0.672,1.5,1.5c0,0.829-0.672,1.5-1.5,1.5     s-1.5-0.671-1.5-1.5C28.986-26.429,29.658-27.101,30.486-27.101z"
                          stroke="#000000"/>
                    <path fill="none" stroke-width="0.3"
                          d="M53.506-10.6c-0.414,0.718-1.332,0.963-2.049,0.55     c-0.717-0.414-0.963-1.332-0.549-2.05s1.332-0.963,2.049-0.549S53.92-11.317,53.506-10.6z"
                          stroke="#000000"/>
                    <path fill="none" stroke-width="0.3"
                          d="M37.799-10.524c-0.414,0.718-1.33,0.964-2.049,0.549     c-0.717-0.414-0.963-1.331-0.549-2.049c0.414-0.717,1.332-0.963,2.049-0.549C37.969-12.158,38.213-11.241,37.799-10.524z"
                          stroke="#000000"/>
                    <path fill="none" stroke-width="0.3"
                          d="M43.662-14.1c-0.828,0-1.5-0.672-1.5-1.5c0-0.829,0.672-1.5,1.5-1.5     s1.5,0.671,1.5,1.5C45.162-14.771,44.49-14.1,43.662-14.1z"
                          stroke="#000000"/>
                    <path fill="none" stroke-width="0.3"
                          d="M18.25-10.226c0.414,0.719,1.332,0.964,2.049,0.55     c0.719-0.414,0.963-1.331,0.549-2.05c-0.412-0.717-1.33-0.963-2.049-0.549C18.082-11.859,17.836-10.942,18.25-10.226z"
                          stroke="#000000"/>
                    <path fill="none" stroke-width="0.3"
                          d="M28.324-16.1c0.828,0,1.5-0.672,1.5-1.5c0-0.829-0.672-1.5-1.5-1.5     s-1.5,0.671-1.5,1.5C26.824-16.771,27.496-16.1,28.324-16.1z"
                          stroke="#000000"/>
                    <path fill="none" stroke-width="0.3"
                          d="M52.756-56.851c0.414,0.719,0.168,1.636-0.549,2.05     s-1.635,0.169-2.049-0.55c-0.414-0.717-0.168-1.634,0.549-2.049C51.424-57.813,52.342-57.567,52.756-56.851z"
                          stroke="#000000"/>
                    <path fill="none" stroke-width="0.3"
                          d="M44.961-50.851c-0.414,0.719-1.332,0.964-2.049,0.55     s-0.963-1.331-0.549-2.05c0.414-0.717,1.332-0.963,2.049-0.549C45.129-52.484,45.375-51.567,44.961-50.851z"
                          stroke="#000000"/>
                    <path fill="none" stroke-width="0.3"
                          d="M37.848-57.476c0.416,0.719,0.17,1.636-0.549,2.051     c-0.717,0.413-1.635,0.168-2.049-0.551c-0.414-0.717-0.168-1.634,0.549-2.049C36.518-58.438,37.436-58.192,37.848-57.476z"
                          stroke="#000000"/>
                    <path fill="none" stroke-width="0.3"
                          d="M18.98-56.851c-0.414,0.719-0.168,1.636,0.549,2.05     s1.635,0.169,2.049-0.55c0.414-0.717,0.168-1.634-0.549-2.049C20.313-57.813,19.395-57.567,18.98-56.851z"
                          stroke="#000000"/>
                    <path fill="none" stroke-width="0.3"
                          d="M27.275-51.851c0.414,0.719,1.332,0.964,2.049,0.55     s0.963-1.331,0.549-2.05c-0.414-0.717-1.332-0.963-2.049-0.549C27.107-53.484,26.861-52.567,27.275-51.851z"
                          stroke="#000000"/>
                    <path fill="none" stroke-width="0.3"
                          d="M60-41.601c-0.828,0-1.5-0.671-1.5-1.5c0-0.828,0.672-1.5,1.5-1.5     c0.83,0,1.5,0.672,1.5,1.5C61.5-42.271,60.83-41.601,60-41.601z"
                          stroke="#000000"/>
                    <path fill="none" stroke-width="0.3"
                          d="M59.986-14.1c0.828,0,1.5-0.672,1.5-1.5c0-0.829-0.672-1.5-1.5-1.5     c-0.83,0-1.5,0.671-1.5,1.5C58.486-14.771,59.156-14.1,59.986-14.1z"
                          stroke="#000000"/>
                    <path fill="none" stroke-width="0.3"
                          d="M38.299-21.274c-0.414-0.717-1.33-0.963-2.049-0.549     c-0.717,0.415-0.963,1.332-0.549,2.049c0.414,0.718,1.332,0.964,2.049,0.549C38.469-19.64,38.713-20.557,38.299-21.274z"
                          stroke="#000000"/>
                    <path fill="none" stroke-width="0.3"
                          d="M29.799-34.274c-0.414-0.717-1.33-0.963-2.049-0.549     c-0.717,0.415-0.963,1.332-0.549,2.049c0.414,0.718,1.332,0.964,2.049,0.549C29.969-32.64,30.213-33.557,29.799-34.274z"
                          stroke="#000000"/>
                    <path fill="none" stroke-width="0.3"
                          d="M46.035-36.149c-0.414-0.717-1.332-0.963-2.049-0.549     c-0.717,0.415-0.963,1.332-0.549,2.049c0.414,0.718,1.332,0.964,2.049,0.549C46.203-34.515,46.449-35.432,46.035-36.149z"
                          stroke="#000000"/>
                    <path fill="none" stroke-width="0.3"
                          d="M37.049-47.774c-0.414-0.717-1.33-0.963-2.049-0.549     c-0.717,0.415-0.963,1.332-0.549,2.049c0.414,0.718,1.332,0.964,2.049,0.549C37.219-46.14,37.463-47.057,37.049-47.774z"
                          stroke="#000000"/>
                    <path fill="none" stroke-width="0.3"
                          d="M20.549-48.274c-0.414-0.717-1.33-0.963-2.049-0.549     c-0.717,0.415-0.963,1.332-0.549,2.049c0.414,0.718,1.332,0.964,2.049,0.549C20.719-46.64,20.963-47.557,20.549-48.274z"
                          stroke="#000000"/>
                    <path fill="none" stroke-width="0.3"
                          d="M52.611-48.351c-0.416-0.717-1.332-0.963-2.049-0.549     c-0.719,0.415-0.965,1.332-0.551,2.049c0.414,0.719,1.332,0.964,2.051,0.551C52.779-46.715,53.025-47.632,52.611-48.351z"
                          stroke="#000000"/>
                    <path fill="none" stroke-width="0.3"
                          d="M20.799-21.274c-0.414-0.717-1.33-0.963-2.049-0.549     c-0.717,0.415-0.963,1.332-0.549,2.049c0.414,0.718,1.332,0.964,2.049,0.549C20.969-19.64,21.213-20.557,20.799-21.274z"
                          stroke="#000000"/>
                    <path fill="none" stroke-width="0.3"
                          d="M29.299-8.524c-0.414-0.717-1.33-0.963-2.049-0.549     c-0.717,0.415-0.963,1.332-0.549,2.049s1.332,0.963,2.049,0.549C29.469-6.89,29.713-7.807,29.299-8.524z"
                          stroke="#000000"/>
                    <path fill="none" stroke-width="0.3"
                          d="M47.049-8.024C46.635-8.741,45.719-8.987,45-8.573     c-0.717,0.415-0.963,1.332-0.549,2.049s1.332,0.963,2.049,0.549C47.219-6.39,47.463-7.307,47.049-8.024z"
                          stroke="#000000"/>
                    <path fill="none" stroke-width="0.3"
                          d="M51.986-20.851c0.828,0,1.5,0.671,1.5,1.5c0,0.828-0.672,1.5-1.5,1.5     s-1.5-0.672-1.5-1.5C50.486-20.18,51.158-20.851,51.986-20.851z"
                          stroke="#000000"/>
                    <path fill="none" stroke-width="0.3"
                          d="M59.25-7.351c-0.828,0-1.5,0.672-1.5,1.5s0.672,1.5,1.5,1.5     c0.83,0,1.5-0.672,1.5-1.5S60.08-7.351,59.25-7.351z"
                          stroke="#000000"/>
                    <path fill="none" stroke-width="0.3"
                          d="M60.283-34.399c-0.414-0.717-1.332-0.963-2.049-0.549     c-0.717,0.415-0.963,1.332-0.549,2.049c0.414,0.718,1.332,0.964,2.049,0.549C60.451-32.765,60.697-33.682,60.283-34.399z"
                          stroke="#000000"/>
                    <path fill="none" stroke-width="0.3"
                          d="M59.971-54.101c-0.828,0-1.5,0.672-1.5,1.5c0,0.829,0.672,1.5,1.5,1.5     s1.5-0.671,1.5-1.5C61.471-53.429,60.799-54.101,59.971-54.101z"
                          stroke="#000000"/>
                    <path fill="none" stroke-width="0.3"
                          d="M57.971-25.851c0.828,0,1.5,0.672,1.5,1.5c0,0.829-0.672,1.5-1.5,1.5     s-1.5-0.671-1.5-1.5C56.471-25.179,57.143-25.851,57.971-25.851z"
                          stroke="#000000"/>
                    <path fill="none" stroke-width="0.3"
                          d="M13.25-41.601c-0.828,0-1.5-0.671-1.5-1.5c0-0.828,0.672-1.5,1.5-1.5     c0.83,0,1.5,0.672,1.5,1.5C14.75-42.271,14.08-41.601,13.25-41.601z"
                          stroke="#000000"/>
                    <path fill="none" stroke-width="0.3"
                          d="M13.236-14.1c0.828,0,1.5-0.672,1.5-1.5c0-0.829-0.672-1.5-1.5-1.5     c-0.83,0-1.5,0.671-1.5,1.5C11.736-14.771,12.406-14.1,13.236-14.1z"
                          stroke="#000000"/>
                    <path fill="none" stroke-width="0.3"
                          d="M12.5-7.351c-0.828,0-1.5,0.672-1.5,1.5s0.672,1.5,1.5,1.5     c0.83,0,1.5-0.672,1.5-1.5S13.33-7.351,12.5-7.351z"
                          stroke="#000000"/>
                    <path fill="none" stroke-width="0.3"
                          d="M13.533-34.399c-0.414-0.717-1.332-0.963-2.049-0.549     c-0.717,0.415-0.963,1.332-0.549,2.049c0.414,0.718,1.332,0.964,2.049,0.549C13.701-32.765,13.947-33.682,13.533-34.399z"
                          stroke="#000000"/>
                    <path fill="none" stroke-width="0.3"
                          d="M13.221-54.101c-0.828,0-1.5,0.672-1.5,1.5c0,0.829,0.672,1.5,1.5,1.5     s1.5-0.671,1.5-1.5C14.721-53.429,14.049-54.101,13.221-54.101z"
                          stroke="#000000"/>
                    <path fill="none" stroke-width="0.3"
                          d="M11.221-25.851c0.828,0,1.5,0.672,1.5,1.5c0,0.829-0.672,1.5-1.5,1.5     s-1.5-0.671-1.5-1.5C9.721-25.179,10.393-25.851,11.221-25.851z"
                          stroke="#000000"/>
                    <path fill="none" stroke-width="0.3"
                          d="M29.314-62.525c-0.414-0.717-1.33-0.963-2.049-0.549     c-0.717,0.415-0.963,1.332-0.549,2.049s1.332,0.963,2.049,0.549C29.484-60.891,29.729-61.808,29.314-62.525z"
                          stroke="#000000"/>
                    <path fill="none" stroke-width="0.3"
                          d="M47.064-62.025c-0.414-0.717-1.33-0.963-2.049-0.549     c-0.717,0.415-0.963,1.332-0.549,2.049s1.332,0.963,2.049,0.549C47.234-60.391,47.479-61.308,47.064-62.025z"
                          stroke="#000000"/>
                    <path fill="none" stroke-width="0.3"
                          d="M59.266-61.352c-0.828,0-1.5,0.672-1.5,1.5s0.672,1.5,1.5,1.5     s1.5-0.672,1.5-1.5S60.094-61.352,59.266-61.352z"
                          stroke="#000000"/>
                    <path fill="none" stroke-width="0.3"
                          d="M12.516-61.352c-0.828,0-1.5,0.672-1.5,1.5s0.672,1.5,1.5,1.5     s1.5-0.672,1.5-1.5S13.344-61.352,12.516-61.352z"
                          stroke="#000000"/>
                </g>
            </g>
        </pattern>
 </g> <rect x='0.00000' width='50.00000' height='50.00000' y='0.00000' style='stroke-width: 0; fill: url(#Sandy_limestone);'/> </svg>