<svg contentScriptType='text/ecmascript' width='50px' xmlns:xlink='http://www.w3.org/1999/xlink' zoomAndPan='magnify' contentStyleType='text/css' viewBox='0 0 50px 50px' height='50px' preserveAspectRatio='xMidYMid meet' xmlns='http://www.w3.org/2000/svg' onload='Init(evt)' version='1.0'> <g>        <pattern xmlns:xlink="http://www.w3.org/1999/xlink" id="Sandy_claystone"
                 patternUnits="userSpaceOnUse" width="65.772" xlink:show="other"
                 xlink:type="simple" patternTransform="scale(0.5, 0.5)"
                 preserveAspectRatio="xMidYMid meet"
                 viewBox="0 -65.618 65.772 65.618" height="65.618" x="-2184.646"
                 y="3215.118" xlink:actuate="onLoad">
            <rect x="0" width="65.772" y="-65.618" height="65.618"
                  style="stroke-width: 0; fill: rgb(215,176,152);"/>
            <g>
                <polygon fill="none"
                         points="0,0 0,-65.618 65.772,-65.618 65.772,0   "/>
                <polygon points="42.479,-56.974 20.174,-56.974 20.174,-59.923 42.479,-59.923   "/>
                <polygon points="42.514,-23.941 20.208,-23.941 20.208,-26.891 42.514,-26.891   "/>
                <polygon points="26.027,-40.938 3.722,-40.938 3.722,-43.887 26.027,-43.887   "/>
                <polygon points="26.062,-7.905 3.756,-7.905 3.756,-10.854 26.062,-10.854   "/>
                <polygon points="59.14,-40.938 36.834,-40.938 36.834,-43.887 59.14,-43.887   "/>
                <polygon points="59.175,-7.905 36.869,-7.905 36.869,-10.854 59.175,-10.854   "/>
                <polygon points="65.592,-56.973 53.287,-56.973 53.287,-59.923 65.592,-59.923   "/>
                <polygon points="65.627,-23.94 53.321,-23.94 53.321,-26.89 65.627,-26.89   "/>
                <polygon fill="none"
                         points="65.772,0 0,0 0,-65.618 65.772,-65.618   "/>
                <polygon points="9.333,-56.97 0.027,-56.97 0.027,-59.919 9.333,-59.919   "/>
                <polygon points="9.332,-23.938 0.026,-23.938 0.026,-26.887 9.332,-26.887   "/>
                <path d="M16.313-30.426c0,0.849-0.688,1.536-1.537,1.536s-1.537-0.688-1.537-1.536s0.688-1.536,1.537-1.536    S16.313-31.274,16.313-30.426z"/>
                <path d="M16.313-63.465c0,0.848-0.688,1.536-1.537,1.536s-1.537-0.688-1.537-1.536c0-0.85,0.688-1.537,1.537-1.537    S16.313-64.314,16.313-63.465z"/>
                <path d="M49.315-30.506c0,0.85-0.688,1.537-1.537,1.537s-1.537-0.688-1.537-1.537c0-0.848,0.688-1.536,1.537-1.536    S49.315-31.354,49.315-30.506z"/>
                <path d="M49.315-63.545c0,0.849-0.688,1.537-1.537,1.537s-1.537-0.688-1.537-1.537s0.688-1.536,1.537-1.536    S49.315-64.394,49.315-63.545z"/>
            </g>
        </pattern>
 </g> <rect x='0.00000' width='50.00000' height='50.00000' y='0.00000' style='stroke-width: 0; fill: url(#Sandy_claystone);'/> </svg>