<svg contentScriptType='text/ecmascript' width='50px' xmlns:xlink='http://www.w3.org/1999/xlink' zoomAndPan='magnify' contentStyleType='text/css' viewBox='0 0 50px 50px' height='50px' preserveAspectRatio='xMidYMid meet' xmlns='http://www.w3.org/2000/svg' onload='Init(evt)' version='1.0'> <g>        <pattern xmlns:xlink="http://www.w3.org/1999/xlink" id="Sandstone"
                 patternUnits="userSpaceOnUse" width="65.464" xlink:show="other"
                 xlink:type="simple" patternTransform="scale(0.5, 0.5)"
                 preserveAspectRatio="xMidYMid meet"
                 viewBox="0 -65.464 65.464 65.464" height="65.464" x="-2184.646"
                 y="3215.118" xlink:actuate="onLoad">
            <rect x="0" width="65.464" y="-65.464" height="65.464"
                  style="stroke-width: 0; fill: rgb(255,240,161);"/>
            <g>
                <polygon fill="none"
                         points="0,0 0,-65.464 65.464,-65.464 65.464,0   "/>
                <path d="M11.266-63.43c0,0.813-0.659,1.472-1.471,1.472c-0.813,0-1.472-0.659-1.472-1.472s0.659-1.472,1.472-1.472    C10.607-64.901,11.266-64.242,11.266-63.43z"/>
                <path d="M30.62-34.738c0,0.813-0.658,1.472-1.471,1.472s-1.471-0.659-1.471-1.472s0.658-1.472,1.471-1.472    S30.62-35.551,30.62-34.738z"/>
                <path d="M5.041-43.227c0,0.813-0.659,1.471-1.472,1.471c-0.813,0-1.471-0.658-1.471-1.471c0-0.813,0.659-1.472,1.471-1.472    C4.382-44.698,5.041-44.04,5.041-43.227z"/>
                <path d="M9.341-50.584c0,0.813-0.659,1.472-1.472,1.472c-0.813,0-1.471-0.659-1.471-1.472s0.659-1.472,1.471-1.472    C8.683-52.056,9.341-51.396,9.341-50.584z"/>
                <path d="M17.943-38.586c0,0.813-0.659,1.472-1.471,1.472c-0.813,0-1.472-0.659-1.472-1.472s0.659-1.472,1.472-1.472    C17.285-40.058,17.943-39.398,17.943-38.586z"/>
                <path d="M20.66-55.563c0,0.813-0.659,1.472-1.472,1.472c-0.813,0-1.471-0.659-1.471-1.472s0.659-1.472,1.471-1.472    C20.001-57.035,20.66-56.376,20.66-55.563z"/>
                <path d="M25.414-49.112c0,0.813-0.659,1.472-1.472,1.472S22.47-48.3,22.47-49.112s0.659-1.472,1.472-1.472    S25.414-49.925,25.414-49.112z"/>
                <path d="M43.915-63.353c0,0.813-0.659,1.472-1.471,1.472c-0.813,0-1.472-0.659-1.472-1.472s0.659-1.471,1.472-1.471    C43.256-64.823,43.915-64.165,43.915-63.353z"/>
                <path d="M63.269-34.66c0,0.813-0.658,1.471-1.471,1.471s-1.471-0.658-1.471-1.471s0.658-1.472,1.471-1.472    S63.269-35.473,63.269-34.66z"/>
                <path d="M37.69-43.148c0,0.813-0.659,1.471-1.472,1.471c-0.813,0-1.471-0.658-1.471-1.471c0-0.813,0.659-1.472,1.471-1.472    C37.031-44.62,37.69-43.962,37.69-43.148z"/>
                <path d="M41.991-50.506c0,0.813-0.659,1.471-1.472,1.471c-0.813,0-1.471-0.658-1.471-1.471s0.659-1.472,1.471-1.472    C41.332-51.978,41.991-51.318,41.991-50.506z"/>
                <path d="M50.593-38.508c0,0.813-0.659,1.471-1.471,1.471c-0.813,0-1.472-0.658-1.472-1.471c0-0.813,0.659-1.473,1.472-1.473    C49.934-39.98,50.593-39.321,50.593-38.508z"/>
                <path d="M53.309-55.485c0,0.813-0.659,1.471-1.472,1.471c-0.813,0-1.471-0.658-1.471-1.471s0.659-1.472,1.471-1.472    C52.65-56.957,53.309-56.298,53.309-55.485z"/>
                <path d="M58.063-49.035c0,0.813-0.659,1.472-1.472,1.472s-1.472-0.659-1.472-1.472s0.659-1.471,1.472-1.471    S58.063-49.848,58.063-49.035z"/>
                <path d="M11.309-30.511c0,0.813-0.659,1.472-1.471,1.472c-0.813,0-1.472-0.659-1.472-1.472s0.659-1.471,1.472-1.471    C10.65-31.981,11.309-31.323,11.309-30.511z"/>
                <path d="M30.663-1.818c0,0.813-0.658,1.471-1.471,1.471S27.72-1.006,27.72-1.818s0.658-1.472,1.471-1.472    S30.663-2.631,30.663-1.818z"/>
                <path d="M5.083-10.307c0,0.813-0.659,1.471-1.472,1.471c-0.813,0-1.471-0.658-1.471-1.471c0-0.813,0.659-1.472,1.471-1.472    C4.425-11.778,5.083-11.12,5.083-10.307z"/>
                <path d="M9.384-17.665c0,0.813-0.659,1.472-1.472,1.472c-0.813,0-1.471-0.658-1.471-1.472c0-0.813,0.659-1.471,1.471-1.471    C8.726-19.136,9.384-18.478,9.384-17.665z"/>
                <path d="M17.986-5.666c0,0.813-0.659,1.471-1.471,1.471c-0.813,0-1.472-0.658-1.472-1.471c0-0.813,0.659-1.473,1.472-1.473    C17.328-7.139,17.986-6.479,17.986-5.666z"/>
                <path d="M20.703-22.644c0,0.813-0.659,1.471-1.472,1.471c-0.813,0-1.471-0.658-1.471-1.471s0.659-1.472,1.471-1.472    C20.044-24.115,20.703-23.456,20.703-22.644z"/>
                <path d="M25.457-16.193c0,0.813-0.659,1.472-1.472,1.472s-1.472-0.659-1.472-1.472s0.659-1.472,1.472-1.472    S25.457-17.006,25.457-16.193z"/>
                <path d="M43.958-30.433c0,0.813-0.659,1.472-1.471,1.472c-0.813,0-1.472-0.659-1.472-1.472s0.659-1.472,1.472-1.472    C43.299-31.904,43.958-31.245,43.958-30.433z"/>
                <path d="M63.312-1.741c0,0.813-0.658,1.472-1.471,1.472S60.37-0.928,60.37-1.741c0-0.813,0.658-1.471,1.471-1.471    S63.312-2.554,63.312-1.741z"/>
                <path d="M37.733-10.229c0,0.813-0.659,1.472-1.472,1.472c-0.813,0-1.471-0.659-1.471-1.472c0-0.813,0.659-1.472,1.471-1.472    C37.074-11.701,37.733-11.043,37.733-10.229z"/>
                <path d="M42.034-17.587c0,0.813-0.659,1.472-1.472,1.472c-0.813,0-1.471-0.658-1.471-1.472c0-0.813,0.659-1.471,1.471-1.471    C41.375-19.058,42.034-18.399,42.034-17.587z"/>
                <path d="M50.636-5.589c0,0.813-0.659,1.471-1.471,1.471c-0.813,0-1.472-0.658-1.472-1.471c0-0.813,0.659-1.472,1.472-1.472    C49.977-7.061,50.636-6.402,50.636-5.589z"/>
                <path d="M53.352-22.566c0,0.813-0.659,1.472-1.472,1.472c-0.813,0-1.471-0.659-1.471-1.472s0.659-1.472,1.471-1.472    C52.693-24.038,53.352-23.379,53.352-22.566z"/>
                <path d="M58.106-16.115c0,0.813-0.659,1.472-1.472,1.472s-1.472-0.659-1.472-1.472s0.659-1.472,1.472-1.472    S58.106-16.928,58.106-16.115z"/>
            </g>
        </pattern>
 </g> <rect x='0.00000' width='50.00000' height='50.00000' y='0.00000' style='stroke-width: 0; fill: url(#Sandstone);'/> </svg>