<svg contentScriptType='text/ecmascript' width='50px' xmlns:xlink='http://www.w3.org/1999/xlink' zoomAndPan='magnify' contentStyleType='text/css' viewBox='0 0 50px 50px' height='50px' preserveAspectRatio='xMidYMid meet' xmlns='http://www.w3.org/2000/svg' onload='Init(evt)' version='1.0'> <g>        <pattern xmlns:xlink="http://www.w3.org/1999/xlink" id="Soil"
                 patternUnits="userSpaceOnUse" width="149.333"
                 xlink:show="other" xlink:type="simple"
                 patternTransform="scale(0.5, 0.5)"
                 preserveAspectRatio="xMidYMid meet"
                 viewBox="0 -101.334 149.333 101.334" height="101.334"
                 x="-2184.646" y="3215.118" xlink:actuate="onLoad">
            <rect x="0" width="149.333" y="-101.334" height="101.334"
                  style="stroke-width: 0; fill: rgb(254,140,39);"/>
            <g>
                <polygon fill="none"
                         points="0,0 149.333,0 149.333,-101.334 0,-101.334   "/>
                <path fill="none" stroke-width="2" stroke-miterlimit="1"
                      d="M25.897-77.965c0,4.234-3.433,7.667-7.667,7.667    s-7.666-3.433-7.666-7.667c0-4.233,3.432-7.666,7.666-7.666S25.897-82.198,25.897-77.965z"
                      stroke="#000000"/>
                <path fill="none" stroke-width="2" stroke-miterlimit="1"
                      d="M42.333-79.667    c0,11.413-9.252,20.666-20.667,20.666S1-68.254,1-79.667c0-6.677,3.166-12.614,8.079-16.393c3.486-2.681,7.851-4.274,12.588-4.274    C33.081-100.334,42.333-91.081,42.333-79.667z"
                      stroke="#000000"/>
                <path stroke-width="2"
                      d="M13.898-92.965c0,1.842-1.493,3.334-3.333,3.334    s-3.333-1.492-3.333-3.334c0-1.841,1.492-3.333,3.333-3.333S13.898-94.806,13.898-92.965z"
                      stroke-miterlimit="1" stroke="#000000"/>
                <path stroke-width="2"
                      d="M35.23-93.631c0,1.841-1.492,3.333-3.333,3.333    s-3.333-1.492-3.333-3.333c0-1.842,1.492-3.334,3.333-3.334S35.23-95.473,35.23-93.631z"
                      stroke-miterlimit="1" stroke="#000000"/>
                <path stroke-width="2"
                      d="M30.564-62.964c0,1.841-1.493,3.333-3.334,3.333    s-3.333-1.492-3.333-3.333c0-1.842,1.492-3.334,3.333-3.334S30.564-64.806,30.564-62.964z"
                      stroke-miterlimit="1" stroke="#000000"/>
                <path fill="none" stroke-width="2" stroke-miterlimit="1"
                      d="M100.564-75.298c0,4.234-3.432,7.667-7.667,7.667    s-7.667-3.433-7.667-7.667s3.433-7.667,7.667-7.667S100.564-79.532,100.564-75.298z"
                      stroke="#000000"/>
                <path fill="none" stroke-width="2" stroke-miterlimit="1"
                      d="M117-77.001c0,11.414-9.252,20.667-20.667,20.667    c-11.414,0-20.667-9.253-20.667-20.667c0-6.676,3.166-12.613,8.079-16.393c3.485-2.68,7.851-4.274,12.588-4.274    C107.748-97.668,117-88.415,117-77.001z"
                      stroke="#000000"/>
                <path stroke-width="2"
                      d="M88.564-90.298c0,1.841-1.493,3.333-3.334,3.333    s-3.333-1.492-3.333-3.333c0-1.842,1.492-3.333,3.333-3.333S88.564-92.14,88.564-90.298z"
                      stroke-miterlimit="1" stroke="#000000"/>
                <path stroke-width="2"
                      d="M109.897-90.965c0,1.842-1.493,3.334-3.333,3.334    s-3.333-1.492-3.333-3.334c0-1.841,1.493-3.333,3.333-3.333S109.897-92.806,109.897-90.965z"
                      stroke-miterlimit="1" stroke="#000000"/>
                <path stroke-width="2"
                      d="M105.23-60.298c0,1.842-1.492,3.333-3.333,3.333    s-3.333-1.491-3.333-3.333c0-1.841,1.492-3.333,3.333-3.333S105.23-62.139,105.23-60.298z"
                      stroke-miterlimit="1" stroke="#000000"/>
                <path fill="none" stroke-width="2" stroke-miterlimit="1"
                      d="M57.23-22.631c0,4.234-3.432,7.666-7.666,7.666    s-7.667-3.432-7.667-7.666s3.432-7.667,7.667-7.667S57.23-26.865,57.23-22.631z"
                      stroke="#000000"/>
                <path fill="none" stroke-width="2" stroke-miterlimit="1"
                      d="M73.667-24.334C73.667-12.92,64.414-3.667,53-3.667    S32.333-12.92,32.333-24.334c0-6.677,3.166-12.614,8.079-16.393c3.486-2.68,7.851-4.274,12.588-4.274    C64.414-45.001,73.667-35.748,73.667-24.334z"
                      stroke="#000000"/>
                <path stroke-width="2"
                      d="M45.231-37.631c0,1.841-1.493,3.333-3.333,3.333    s-3.333-1.492-3.333-3.333c0-1.842,1.493-3.334,3.333-3.334S45.231-39.473,45.231-37.631z"
                      stroke-miterlimit="1" stroke="#000000"/>
                <path stroke-width="2"
                      d="M66.564-38.298c0,1.842-1.493,3.333-3.334,3.333    s-3.333-1.491-3.333-3.333c0-1.841,1.492-3.333,3.333-3.333S66.564-40.139,66.564-38.298z"
                      stroke-miterlimit="1" stroke="#000000"/>
                <path stroke-width="2"
                      d="M61.898-7.631c0,1.842-1.493,3.334-3.333,3.334    s-3.333-1.492-3.333-3.334c0-1.841,1.492-3.333,3.333-3.333S61.898-9.472,61.898-7.631z"
                      stroke-miterlimit="1" stroke="#000000"/>
                <path fill="none" stroke-width="2" stroke-miterlimit="1"
                      d="M131.897-19.965c0,4.234-3.433,7.667-7.667,7.667    s-7.666-3.433-7.666-7.667c0-4.233,3.432-7.666,7.666-7.666S131.897-24.198,131.897-19.965z"
                      stroke="#000000"/>
                <path fill="none" stroke-width="2" stroke-miterlimit="1"
                      d="M148.333-21.667    C148.333-10.254,139.081-1,127.667-1S107-10.254,107-21.667c0-6.677,3.166-12.614,8.079-16.393    c3.486-2.681,7.851-4.274,12.588-4.274C139.081-42.334,148.333-33.081,148.333-21.667z"
                      stroke="#000000"/>
                <path stroke-width="2"
                      d="M119.898-34.965c0,1.842-1.493,3.334-3.333,3.334    s-3.333-1.492-3.333-3.334c0-1.841,1.492-3.333,3.333-3.333S119.898-36.806,119.898-34.965z"
                      stroke-miterlimit="1" stroke="#000000"/>
                <path stroke-width="2"
                      d="M141.23-35.631c0,1.841-1.492,3.333-3.333,3.333    s-3.333-1.492-3.333-3.333c0-1.842,1.492-3.334,3.333-3.334S141.23-37.473,141.23-35.631z"
                      stroke-miterlimit="1" stroke="#000000"/>
                <path stroke-width="2"
                      d="M136.564-4.964c0,1.841-1.493,3.333-3.334,3.333    s-3.333-1.492-3.333-3.333s1.492-3.333,3.333-3.333S136.564-6.805,136.564-4.964z"
                      stroke-miterlimit="1" stroke="#000000"/>
            </g>
        </pattern>
 </g> <rect x='0.00000' width='50.00000' height='50.00000' y='0.00000' style='stroke-width: 0; fill: url(#Soil);'/> </svg>